<svg id="filled_outline" height="512" viewBox="0 0 512 512" width="512" xmlns="http://www.w3.org/2000/svg" data-name="filled outline"><rect fill="#548aff" height="264" rx="16" width="256" x="200" y="24"/><path d="m232 88h96v72h-96z" fill="#a6cfff"/><path d="m272 136 32-24 24 16v32h-56z" fill="#7dafff"/><path d="m336 445.66992v18.33008h-16l-16-16-76.18994-15.24-33.86006-42.32006-17.95-22.43994v128h-152v-128a55.99746 55.99746 0 0 1 56-56h96.62012a32.00389 32.00389 0 0 1 24.98974 12.01l29.41014 36.77 24.98 31.22 59.87988 23.95a32.00991 32.00991 0 0 1 20.12012 29.71992z" fill="#ffceb6"/><path d="m231.02 360.78-37.07 29.65994-17.95-22.43994v128h-152v-128a55.99746 55.99746 0 0 1 56-56h96.62012a32.00389 32.00389 0 0 1 24.98974 12.01z" fill="#ffb401"/><path d="m136 352 8 56-16 24-16-24 8-56z" fill="#ef5e3b"/><path d="m144 344-8 8h-16l-8-8 16-16z" fill="#e04f2b"/><path d="m70.11764 450.82352 23.10688 14.4418a32 32 0 0 0 23.23568 4.24268l107.5398-21.508 29.35445 14.67722a12.52945 12.52945 0 0 0 5.60337 1.32278h.51267a12.52951 12.52951 0 0 0 12.52951-12.52951 12.5296 12.5296 0 0 0 -1.78554-6.44638l-10.65093-17.75154a39.696 39.696 0 0 0 -34.03899-19.27257q-1.524 0-3.04454.11692l-102.48 7.88308-17.14287-14.28572-32.7395 49.10924z" fill="#ffceb6"/><path d="m240 464h104v24h-104z" fill="#e0edff"/><rect fill="#c5dafa" height="128" rx="16" width="184" x="304" y="264"/><path d="m384 336h48v152h-48z" fill="#e0edff"/><path d="m344 464h40v24h-40z" fill="#c5dafa"/><path d="m304 160-48-40-24 16v24z" fill="#91c0ff"/><path d="m128 320a32 32 0 0 0 32-32v-40h-40l-24 24v16a32 32 0 0 0 32 32z" fill="#ffceb6"/><path d="m160 248 3.02944-3.02944a16.97054 16.97054 0 0 0 4.97056-12 16.97054 16.97054 0 0 0 -16.97055-16.97056h-31.02945a24 24 0 0 0 -24 24v32l24-24z" fill="#c47220"/><path d="m472 256h-152a24.0275 24.0275 0 0 0 -24 24v96a24.0275 24.0275 0 0 0 24 24h56v56h-32v-10.335a39.80821 39.80821 0 0 0 -25.14453-37.13867l-57.92578-23.1709-53.0752-66.34277a39.80132 39.80132 0 0 0 -31.23437-15.01266h-11.97022a39.75689 39.75689 0 0 0 3.3501-16v-36.68555l.68652-.68652a24.97109 24.97109 0 0 0 -17.65722-42.62793h-31.0293a32.03667 32.03667 0 0 0 -32 32v48a39.75689 39.75689 0 0 0 3.3501 16h-11.3501a64.07207 64.07207 0 0 0 -64 64v128h16v-128a48.05375 48.05375 0 0 1 48-48h24v-.022a40.03992 40.03992 0 0 0 8.02441 4.6831l-21.68164 21.68167 11.31446 11.31446 6.34277-6.34302 3.51465 3.51391-5.57715 39.03956-28.81641-24.01319-10.24218 12.291 25.33471 21.1123-24.44311 36.66457-23.53028-14.70654-8.48046 13.56836 53.22558 33.26562a39.891 39.891 0 0 0 29.044 5.30274l49.97065-9.99414v28.6416h16v-31.8418l38.87695-7.77539 9.63648 4.81812a7.96414 7.96414 0 0 0 -.51343 2.79907v24a8.00039 8.00039 0 0 0 8 8h192a8.00039 8.00039 0 0 0 8-8v-88h32a24.0275 24.0275 0 0 0 24-24v-96a24.0275 24.0275 0 0 0 -24-24zm-218.9707 143.42773 59.88476 23.95411a23.88508 23.88508 0 0 1 15.08594 22.28316v10.335h-4.68652l-13.65625-13.65723a8.00752 8.00752 0 0 0 -4.08789-2.1875l-32.89307-6.57861-6.25244-10.42041a47.93683 47.93683 0 0 0 -40.89942-23.15625c-1.21582 0-2.44726.04785-3.6582.14062l-9.33447.718-7.33643-9.17016 24.5791-19.66333 19.97852 24.9729a8.00006 8.00006 0 0 0 3.27637 2.4297zm47.65722 56.57227h-21.20652a20.4902 20.4902 0 0 0 .52-4.5293c0-.03784-.00366-.07544-.00391-.11328l20.05957 4.01172zm-107.45678-53.65674-9.22974.71021v-12.24683zm2.13061-73.33545 24.41919 30.52393-24.57886 19.66308-12.95361-16.19189a7.99987 7.99987 0 0 0 -14.24707 4.99707v36.28418l-16.27051 1.25146-7.24414-50.70752 3.51465-3.51391 6.34277 6.343 11.31446-11.31446-21.68164-21.68164a40.03992 40.03992 0 0 0 8.02441-4.68311v.022h24.62012a23.87964 23.87964 0 0 1 18.74023 9.00781zm-75.36035-105.00781h31.0293a8.97 8.97 0 0 1 6.34277 15.31348l-.68652.68652h-36.68555a8.00235 8.00235 0 0 0 -5.65723 2.34277l-10.34277 10.34278v-12.68555a16.01833 16.01833 0 0 1 16-16zm-16 64v-12.68652l19.31348-19.31348h28.68652v32a24 24 0 0 1 -48 0zm24 43.31348 8.68579 8.68628-4.00024 4.00024h-9.3711l-4.00024-4.00024zm-1.06128 28.68652h2.12256l6.68066 46.76562-13.116 1.00879-2.24488-1.8706zm95.49194 80.15527-107.54 21.50782a23.91261 23.91261 0 0 1 -17.42578-3.18164l-16.12088-10.07569 23.23121-34.84668 10.30371 8.58643a8.00614 8.00614 0 0 0 5.73437 1.83105l102.48145-7.88281c.80468-.0625 1.62207-.09375 2.42968-.09375a31.85282 31.85282 0 0 1 27.17871 15.38867l9.76417 16.27246-.03663.1836.16675.03344.75708 1.26148a4.52981 4.52981 0 0 1 -3.8838 6.86035h-.5127a4.55227 4.55227 0 0 1 -2.02637-.47852l-29.35449-14.67675a8.00485 8.00485 0 0 0 -5.14648-.68946zm25.56934 31.84473h88v8h-88zm104 0h24v8h-24zm72 8h-32v-136h32zm56-104a8.00917 8.00917 0 0 1 -8 8h-32v-48a8.00039 8.00039 0 0 0 -8-8h-48a8.00039 8.00039 0 0 0 -8 8v48h-56a8.00917 8.00917 0 0 1 -8-8v-96a8.00917 8.00917 0 0 1 8-8h152a8.00917 8.00917 0 0 1 8 8z"/><path d="m464 240v-200a24.0275 24.0275 0 0 0 -24-24h-224a24.0275 24.0275 0 0 0 -24 24v232a24.0275 24.0275 0 0 0 24 24h64v-16h-64a8.00917 8.00917 0 0 1 -8-8v-232a8.00917 8.00917 0 0 1 8-8h224a8.00917 8.00917 0 0 1 8 8v200z"/><circle cx="224" cy="48" r="8"/><circle cx="248" cy="48" r="8"/><circle cx="272" cy="48" r="8"/><path d="m232 168h96a8.00039 8.00039 0 0 0 8-8v-72a8.00039 8.00039 0 0 0 -8-8h-96a8.00039 8.00039 0 0 0 -8 8v72a8.00039 8.00039 0 0 0 8 8zm8-27.71875 15.46777-10.31152 26.43653 22.03027h-41.9043zm66.89575 11.71875-20.31909-16.93262 17.69482-13.27148 15.72852 10.48535v19.71875zm13.10425-56v17.052l-11.5625-7.70825a8.00368 8.00368 0 0 0 -9.2373.25586l-25.25538 18.94139-12.82373-10.68653a7.99785 7.99785 0 0 0 -9.55859-.51074l-11.5625 7.70827v-25.052z"/><path d="m352 88h24v16h-24z"/><path d="m392 88h40v16h-40z"/><path d="m352 120h56v16h-56z"/><path d="m352 152h48v16h-48z"/><path d="m416 152h16v16h-16z"/><path d="m232 192h24v16h-24z"/><path d="m272 192h96v16h-96z"/><path d="m384 192h48v16h-48z"/><path d="m232 224h80v16h-80z"/><path d="m328 224h104v16h-104z"/></svg>