<svg enable-background="new 0 0 24 24" height="512" viewBox="0 0 24 24" width="512" xmlns="http://www.w3.org/2000/svg"><path d="m23.62 10.85-2.62-2.511v-6.589c0-.414-.336-.75-.75-.75h-3.5c-.414 0-.75.336-.75.75v1.796l-3.48-3.336c-.29-.28-.75-.28-1.04 0l-11.11 10.65c-.24.23-.37.56-.37.89 0 .69.56 1.25 1.25 1.25h1.75v9c0 1.1.9 2 2 2h14c1.1 0 2-.9 2-2v-9h1.75c.69 0 1.25-.56 1.25-1.25 0-.33-.13-.66-.38-.9z" fill="#eceff1"/><path d="m9 16h6v8h-6z" fill="#2196f3"/><path d="m19.25 24h-14.5c-.965 0-1.75-.785-1.75-1.75v-9.25h-1.75c-.689 0-1.25-.561-1.25-1.25 0-.331.135-.655.37-.89l11.111-10.652c.286-.274.735-.279 1.027-.01l3.492 3.22v-1.668c0-.414.336-.75.75-.75h3.5c.414 0 .75.336.75.75v6.526l2.625 2.579c.002.001.003.003.005.005.235.235.37.559.37.89 0 .689-.561 1.25-1.25 1.25h-1.75v9.25c0 .965-.785 1.75-1.75 1.75zm-17.381-12.5h1.881c.414 0 .75.336.75.75v10c0 .136.114.25.25.25h14.5c.136 0 .25-.114.25-.25v-10c0-.414.336-.75.75-.75h1.892l-2.417-2.375c-.144-.141-.225-.333-.225-.535v-6.09h-2v2.63c0 .298-.176.567-.449.687-.271.12-.59.066-.809-.136l-4.232-3.902z"/><path d="m14.25 24h-4.5c-.965 0-1.75-.785-1.75-1.75v-5.5c0-.965.785-1.75 1.75-1.75h4.5c.965 0 1.75.785 1.75 1.75v5.5c0 .965-.785 1.75-1.75 1.75zm-4.5-7.5c-.138 0-.25.112-.25.25v5.5c0 .138.112.25.25.25h4.5c.138 0 .25-.112.25-.25v-5.5c0-.138-.112-.25-.25-.25z"/></svg>